<svg xmlns="http://www.w3.org/2000/svg" xmlns:xlink="http://www.w3.org/1999/xlink" viewBox="0 0 325.3 380.7"><defs><style>.cls-1{fill:url(#linear-gradient);}.cls-2{fill:url(#linear-gradient-2);}.cls-3{fill:url(#linear-gradient-3);}</style><linearGradient id="linear-gradient" x1="131.82" y1="548.7" x2="255.41" y2="407.02" gradientTransform="matrix(1, 0, 0, -1, 0, 613.29)" gradientUnits="userSpaceOnUse"><stop offset="0" stop-color="#4bdc9f"/><stop offset="0.51" stop-color="#33c4ad"/><stop offset="1" stop-color="#1cb2b9"/></linearGradient><linearGradient id="linear-gradient-2" x1="8.03" y1="440.71" x2="131.62" y2="299.03" xlink:href="#linear-gradient"/><linearGradient id="linear-gradient-3" x1="132.47" y1="549.27" x2="256.07" y2="407.59" xlink:href="#linear-gradient"/></defs><title>Asset 1</title><g id="Layer_2" data-name="Layer 2"><g id="图层_1" data-name="图层 1"><path class="cls-1" d="M325.3,129.6s-18.1-16.9-28.4-27.2c-2-2-6.7-6-6.9-11.7L289.7,80V62.6a61.76,61.76,0,0,0-2-15.6,57.93,57.93,0,0,0-14.3-27.1C261.9,7.3,245.4,0,227.1,0H140.8a62.73,62.73,0,0,0-32.2,8.9C90.2,19.1,78,40.5,78,61.3c0,0,.2,111.5.2,125.4,0,13.7,5.2,25.8,6.8,28.5a62.76,62.76,0,0,0,55.7,34.1H227a63.57,63.57,0,0,0,42.8-16.9,54.92,54.92,0,0,0,12.4-15.6c2.9-5.3,7.4-17.8,7.4-27.2v-4.4H270.3a37.69,37.69,0,0,1-6.3,23.7c-9.1,12.7-17.5,19.4-37.1,20.4H140.6a44.82,44.82,0,0,1-6.4-.5c-10.4-2.5-19.4-5.8-26-14-7.6-9.6-10.1-18.6-10.2-28.1V60.6A42.58,42.58,0,0,1,140.6,20h86.3a43.08,43.08,0,0,1,40.7,27.4c1.2,3,3,9.7,3,13.9,0,7.5-.3,28.8-.3,28.8,0,9.6,4.5,17.8,10,23.8,2.8,3.1,16.3,15.7,16.3,15.7l-18.1,18.1a28.21,28.21,0,0,0-8.2,21.8h19.6a9.72,9.72,0,0,1,3.1-7.8C296.6,158.4,325.3,129.6,325.3,129.6Z"/><polygon class="cls-2" points="191.1 299.6 97.9 299.6 63.6 334.1 63.6 299.9 19.5 300.3 19.5 90.5 63.4 90.5 63.4 71 0 71 0 319.8 45.6 319.8 45.6 380.7 106.9 319.8 107.2 319.8 107.2 319.8 210.9 319.8 210.9 264 191.5 264 191.1 299.6"/><polygon class="cls-3" points="210.9 214.6 210.9 71 113.1 71 113.1 90.5 191.5 90.5 191.5 214.6 210.9 214.6"/></g></g></svg>