<?xml version="1.0" encoding="utf-8"?>
<!-- Generator: Adobe Illustrator 21.0.0, SVG Export Plug-In . SVG Version: 6.00 Build 0)  -->
<svg version="1.1" id="图层_1" xmlns="http://www.w3.org/2000/svg" xmlns:xlink="http://www.w3.org/1999/xlink" x="0px" y="0px"
	 viewBox="0 0 562 242" style="enable-background:new 0 0 562 242;" xml:space="preserve">
<style type="text/css">
	.st0{fill:#FFFFFF;}
	.st1{fill:url(#SVGID_1_);}
	.st2{fill:url(#SVGID_2_);}
	.st3{fill:url(#SVGID_3_);}
</style>
<title>小哒智能科技英文标志图片</title>
<g>
	<path class="st0" d="M312.3,108.4V93c0-0.9,0.4-1.7,1.2-2.2c0.8-0.7,1.9-1,3-1h11.1v-10h-13.9c-10.3,0-15.4,4.9-15.4,15.1v13.6l0,0
		V122c0,10.2,5,15.1,15.4,15.1h13.9v-9.9h-11.1c-1.1,0-2.2-0.3-3-1c-0.7-0.5-1.1-1.4-1.2-2.2L312.3,108.4L312.3,108.4z"/>
	<rect x="331.1" y="79.8" class="st0" width="12.8" height="57.3"/>
	<path class="st0" d="M372.5,87.4v-7.6h-14.2v57.2h15.8V98.5c0-3.2,1.9-5,5.3-5h9.3V79.9h-2.5C381.5,79.9,374.9,83.1,372.5,87.4z"/>
	<polygon class="st0" points="453.6,122.8 444.5,79.9 430.1,79.9 421.2,123.4 412.7,79.9 399.2,79.9 412,137.1 429.8,137.1 
		436.5,101.5 438.1,101.5 444.8,137.1 462.2,137.1 475.3,79.9 461.9,79.9 	"/>
	<path class="st0" d="M268.1,60.7h-32.8v76.4h15.4l0.1-66.6h13.8c0.9,0,1.8,0.4,2.4,1c0.6,0.6,1,1.4,1,2.2v50.2c0,0.9-0.4,1.7-1,2.2
		c-0.6,0.6-1.5,1-2.4,1h-10.4v9.9h13.9c10.3,0,15.4-4.9,15.4-15.1V75.8C283.5,65.7,278.5,60.7,268.1,60.7z"/>
	<rect x="485.3" y="79.9" class="st0" width="15.8" height="57.2"/>
	<rect x="515" y="79.9" class="st0" width="14" height="57.2"/>
	<path class="st0" d="M545.2,78.7h-2.8c-4.1,0-7.5,0.8-9.9,2.5v7.9c0.5-0.3,1.1-0.4,1.7-0.4h7.2c0.9,0,1.8,0.4,2.4,1
		c0.6,0.6,1,1.4,1,2.2v45.2h15.8V93.8C560.6,83.6,555.6,78.7,545.2,78.7z"/>
	<rect x="485.3" y="61.7" class="st0" width="15.8" height="11.6"/>
	
		<linearGradient id="SVGID_1_" gradientUnits="userSpaceOnUse" x1="85.4232" y1="203.0553" x2="163.8432" y2="113.1553" gradientTransform="matrix(1 0 0 -1 0 244)">
		<stop  offset="0" style="stop-color:#4BDC9F"/>
		<stop  offset="0.51" style="stop-color:#33C4AD"/>
		<stop  offset="1" style="stop-color:#1CB2B9"/>
	</linearGradient>
	<path class="st1" d="M208.2,82.2c0,0-11.5-10.8-18-17.2c-1.2-1.2-4.2-3.8-4.4-7.5l-0.2-6.8v-11c0-3.3-0.4-6.7-1.2-9.9
		c-1.4-6.4-4.6-12.4-9.1-17.2C167.7,4.5,157.1-0.1,145.9,0H91.2C84,0,76.9,1.9,70.8,5.7c-11.7,6.5-19.4,20-19.4,33.2
		c0,0,0.1,70.7,0.1,79.6c0,6.3,1.5,12.4,4.3,18.1c6.8,13.3,20.4,21.6,35.4,21.7h54.7c10.1,0,19.7-3.9,27.1-10.8
		c3.2-2.8,5.9-6.2,7.9-9.9c1.8-3.3,4.7-11.3,4.7-17.3v-2.8h-12.2c0.4,5.3-1,10.6-4,15.1c-5.8,8.1-11.1,12.3-23.5,13H91.2
		c-1.4,0-2.7-0.1-4.1-0.3c-6.6-1.6-12.3-3.7-16.5-8.9c-4.2-5-6.5-11.3-6.5-17.8v-80c0.7-14.4,12.6-25.8,27-25.8h54.8
		c11.4-0.2,21.6,6.7,25.8,17.3c1.1,2.8,1.7,5.8,1.9,8.8c0,4.8-0.2,18.3-0.2,18.3c0,6.1,2.9,11.3,6.3,15.1c1.8,2,10.4,10,10.4,10
		l-11.5,11.5c-3.6,3.6-5.5,8.7-5.2,13.8h12.5c-0.1-1.9,0.6-3.7,1.9-5L208.2,82.2z"/>
	
		<linearGradient id="SVGID_2_" gradientUnits="userSpaceOnUse" x1="6.8516" y1="134.5114" x2="85.2716" y2="44.6214" gradientTransform="matrix(1 0 0 -1 0 244)">
		<stop  offset="0" style="stop-color:#4BDC9F"/>
		<stop  offset="0.51" style="stop-color:#33C4AD"/>
		<stop  offset="1" style="stop-color:#1CB2B9"/>
	</linearGradient>
	<polygon class="st2" points="123,190.1 63.9,190.1 42.1,211.9 42.1,190.3 14.1,190.5 14.1,57.4 42,57.4 42,45 1.8,45 1.8,202.9 
		30.7,202.9 30.7,241.5 69.6,202.9 69.8,202.9 69.8,202.9 135.6,202.9 135.6,167.5 123.2,167.5 	"/>
	
		<linearGradient id="SVGID_3_" gradientUnits="userSpaceOnUse" x1="85.8093" y1="203.3894" x2="164.2293" y2="113.4994" gradientTransform="matrix(1 0 0 -1 0 244)">
		<stop  offset="0" style="stop-color:#4BDC9F"/>
		<stop  offset="0.51" style="stop-color:#33C4AD"/>
		<stop  offset="1" style="stop-color:#1CB2B9"/>
	</linearGradient>
	<polygon class="st3" points="135.6,136.1 135.6,45 73.5,45 73.5,57.4 123.2,57.4 123.2,136.1 	"/>
</g>
</svg>
